<svg width="299" height="320" viewBox="0 0 299 320" fill="none" xmlns="http://www.w3.org/2000/svg">
<path d="M0.0623201 0.0299991L0 0C0.0123483 0 0.0331677 0.010054 0.0623201 0.0299991L299 143.93L0 320C0 320 135.865 153.013 131.969 153.013C131.969 153.013 3.62957 2.47059 0.0623201 0.0299991Z" fill="#B9F2FF"/>
<g filter="url(#filter0_i_7_6)">
<path d="M176.762 137V123H181.782C182.956 123 183.962 123.187 184.802 123.56C185.642 123.933 186.289 124.473 186.742 125.18C187.196 125.873 187.422 126.72 187.422 127.72C187.422 128.693 187.196 129.533 186.742 130.24C186.289 130.947 185.642 131.487 184.802 131.86C183.962 132.233 182.956 132.42 181.782 132.42H177.322L177.782 131.94V137H176.762ZM177.782 132L177.322 131.5H181.782C183.289 131.5 184.429 131.173 185.202 130.52C185.989 129.853 186.382 128.92 186.382 127.72C186.382 126.507 185.989 125.573 185.202 124.92C184.429 124.253 183.289 123.92 181.782 123.92H177.322L177.782 123.42V132Z" fill="#B9F2FF"/>
<path d="M187.821 137L194.261 123H195.281L201.721 137H200.621L194.541 123.64H194.981L188.921 137H187.821ZM190.181 133.06L190.521 132.2H198.901L199.241 133.06H190.181Z" fill="#B9F2FF"/>
<path d="M206.239 137V123.92H201.199V123H212.299V123.92H207.259V137H206.239Z" fill="#B9F2FF"/>
<path d="M225.209 123H226.229V137H225.209V123ZM215.849 137H214.829V123H215.849V137ZM225.329 130.34H215.729V129.44H225.329V130.34Z" fill="#B9F2FF"/>
<path d="M152.719 161V147H153.739V161H152.719Z" fill="#B9F2FF"/>
<path d="M158.618 161V147H159.478L169.458 159.74H168.998V147H170.018V161H169.178L159.178 148.26H159.638V161H158.618Z" fill="#B9F2FF"/>
<path d="M177.587 161V147.92H172.547V147H183.647V147.92H178.607V161H177.587Z" fill="#B9F2FF"/>
<path d="M187.076 153.44H194.656V154.34H187.076V153.44ZM187.196 160.08H195.836V161H186.176V147H195.536V147.92H187.196V160.08Z" fill="#B9F2FF"/>
<path d="M205.477 161.1C204.423 161.1 203.45 160.927 202.557 160.58C201.663 160.22 200.883 159.72 200.217 159.08C199.563 158.44 199.057 157.693 198.697 156.84C198.337 155.973 198.157 155.027 198.157 154C198.157 152.973 198.337 152.033 198.697 151.18C199.057 150.313 199.57 149.56 200.237 148.92C200.903 148.28 201.677 147.787 202.557 147.44C203.45 147.08 204.43 146.9 205.497 146.9C206.51 146.9 207.45 147.06 208.317 147.38C209.183 147.7 209.923 148.18 210.537 148.82L209.897 149.5C209.283 148.9 208.61 148.473 207.877 148.22C207.157 147.967 206.37 147.84 205.517 147.84C204.61 147.84 203.77 147.993 202.997 148.3C202.223 148.607 201.55 149.04 200.977 149.6C200.403 150.16 199.957 150.813 199.637 151.56C199.33 152.307 199.177 153.12 199.177 154C199.177 154.88 199.33 155.693 199.637 156.44C199.957 157.187 200.403 157.84 200.977 158.4C201.55 158.96 202.223 159.393 202.997 159.7C203.77 160.007 204.61 160.16 205.517 160.16C206.343 160.16 207.123 160.033 207.857 159.78C208.603 159.527 209.283 159.107 209.897 158.52L210.477 159.3C209.85 159.9 209.097 160.353 208.217 160.66C207.35 160.953 206.437 161.1 205.477 161.1ZM209.497 159.2V154.06H210.477V159.3L209.497 159.2Z" fill="#B9F2FF"/>
<path d="M214.965 161V147H219.985C221.159 147 222.165 147.187 223.005 147.56C223.845 147.933 224.492 148.473 224.945 149.18C225.399 149.873 225.625 150.72 225.625 151.72C225.625 152.693 225.399 153.533 224.945 154.24C224.492 154.933 223.845 155.473 223.005 155.86C222.165 156.233 221.159 156.42 219.985 156.42H215.525L215.985 155.94V161H214.965ZM224.685 161L221.045 155.92H222.205L225.845 161H224.685ZM215.985 156L215.525 155.52H219.985C221.492 155.52 222.632 155.187 223.405 154.52C224.192 153.853 224.585 152.92 224.585 151.72C224.585 150.507 224.192 149.573 223.405 148.92C222.632 148.253 221.492 147.92 219.985 147.92H215.525L215.985 147.42V156Z" fill="#B9F2FF"/>
<path d="M227.02 161L233.46 147H234.48L240.92 161H239.82L233.74 147.64H234.18L228.12 161H227.02ZM229.38 157.06L229.72 156.2H238.1L238.44 157.06H229.38Z" fill="#B9F2FF"/>
<path d="M243.461 161V147H244.481V160.08H252.541V161H243.461Z" fill="#B9F2FF"/>
</g>
<path d="M298.5 147.5C298.5 184.009 289.118 217.038 273.975 240.924C258.828 264.816 237.965 279.5 215 279.5C192.035 279.5 171.172 264.816 156.025 240.924C140.882 217.038 131.5 184.009 131.5 147.5C131.5 110.991 140.882 77.9622 156.025 54.0761C171.172 30.1838 192.035 15.5 215 15.5C237.965 15.5 258.828 30.1838 273.975 54.0761C289.118 77.9622 298.5 110.991 298.5 147.5Z" stroke="#BFFF80"/>
<defs>
<filter id="filter0_i_7_6" x="152.719" y="123" width="99.8222" height="42.1" filterUnits="userSpaceOnUse" color-interpolation-filters="sRGB">
<feFlood flood-opacity="0" result="BackgroundImageFix"/>
<feBlend mode="normal" in="SourceGraphic" in2="BackgroundImageFix" result="shape"/>
<feColorMatrix in="SourceAlpha" type="matrix" values="0 0 0 0 0 0 0 0 0 0 0 0 0 0 0 0 0 0 127 0" result="hardAlpha"/>
<feOffset dy="4"/>
<feGaussianBlur stdDeviation="2"/>
<feComposite in2="hardAlpha" operator="arithmetic" k2="-1" k3="1"/>
<feColorMatrix type="matrix" values="0 0 0 0 0 0 0 0 0 0 0 0 0 0 0 0 0 0 0.25 0"/>
<feBlend mode="normal" in2="shape" result="effect1_innerShadow_7_6"/>
</filter>
</defs>
</svg>
