<svg width="324" height="124" viewBox="0 0 324 124" fill="none" xmlns="http://www.w3.org/2000/svg">
<g filter="url(#filter0_i_9_33)">
<path d="M0 48.5585V2.9942H16.2938C20.1021 2.9942 23.3696 3.60173 26.096 4.81677C28.8225 6.03182 30.9214 7.7893 32.3928 10.0892C33.8642 12.3457 34.5999 15.1013 34.5999 18.3559C34.5999 21.5237 33.8642 24.2575 32.3928 26.5575C30.9214 28.8574 28.8225 30.6148 26.096 31.8299C23.3696 33.0449 20.1021 33.6525 16.2938 33.6525H1.81763L3.31069 32.0903V48.5585H0ZM3.31069 32.2855L1.81763 30.6582H16.2938C21.1841 30.6582 24.8842 29.5951 27.3943 27.4687C29.9477 25.299 31.2243 22.2614 31.2243 18.3559C31.2243 14.407 29.9477 11.3694 27.3943 9.24302C24.8842 7.07329 21.1841 5.98843 16.2938 5.98843H1.81763L3.31069 4.36113V32.2855Z" fill="#B9F2FF"/>
<path d="M82.9311 45.5643L103.834 -2.28882e-05H107.145L128.047 45.5643H124.477L104.743 2.08292H106.171L86.5015 45.5643H82.9311ZM90.5912 32.7412L91.6947 29.9422H118.894L119.998 32.7412H90.5912Z" fill="#B9F2FF"/>
<path d="M199.661 45.5643V2.99423H183.302V7.62939e-06H219.33V2.99423H202.972V45.5643H199.661Z" fill="#B9F2FF"/>
<path d="M320.689 -3.05176e-05H324V45.5643H320.689V-3.05176e-05ZM290.309 45.5643H286.998V-3.05176e-05H290.309V45.5643ZM321.079 23.8887H289.919V20.9595H321.079V23.8887Z" fill="#B9F2FF"/>
<path d="M-3.8147e-06 123.674V78.1102H3.31068V123.674H-3.8147e-06Z" fill="#B9F2FF"/>
<path d="M19.145 123.674V78.1102H21.9363L54.3291 119.574H52.8361V78.1102H56.1468V123.674H53.4203L20.9626 82.211H22.4557V123.674H19.145Z" fill="#B9F2FF"/>
<path d="M80.7142 123.674V81.1044H64.3555V78.1102H100.384V81.1044H84.0249V123.674H80.7142Z" fill="#B9F2FF"/>
<path d="M111.515 99.0698H136.118V101.999H111.515V99.0698ZM111.905 120.68H139.948V123.674H108.594V78.1102H138.974V81.1044H111.905V120.68Z" fill="#B9F2FF"/>
<path d="M171.238 124C167.819 124 164.66 123.436 161.761 122.308C158.861 121.136 156.329 119.509 154.166 117.426C152.045 115.343 150.4 112.913 149.232 110.135C148.063 107.315 147.479 104.234 147.479 100.892C147.479 97.551 148.063 94.4917 149.232 91.7144C150.4 88.8938 152.067 86.442 154.23 84.359C156.394 82.2761 158.904 80.6705 161.761 79.5422C164.66 78.3706 167.841 77.7847 171.303 77.7847C174.592 77.7847 177.643 78.3055 180.456 79.3469C183.269 80.3884 185.671 81.9506 187.662 84.0336L185.585 86.2467C183.594 84.2939 181.408 82.9053 179.028 82.0808C176.691 81.2563 174.138 80.8441 171.368 80.8441C168.425 80.8441 165.699 81.3431 163.189 82.3412C160.679 83.3392 158.493 84.7496 156.632 86.5721C154.771 88.3947 153.322 90.521 152.283 92.9511C151.288 95.3812 150.79 98.0283 150.79 100.892C150.79 103.756 151.288 106.403 152.283 108.834C153.322 111.264 154.771 113.39 156.632 115.213C158.493 117.035 160.679 118.445 163.189 119.444C165.699 120.442 168.425 120.941 171.368 120.941C174.051 120.941 176.583 120.528 178.963 119.704C181.387 118.879 183.594 117.512 185.585 115.603L187.467 118.142C185.433 120.094 182.988 121.57 180.132 122.568C177.319 123.523 174.354 124 171.238 124ZM184.286 117.816V101.088H187.467V118.142L184.286 117.816Z" fill="#B9F2FF"/>
<path d="M202.037 123.674V78.1102H218.33C222.139 78.1102 225.406 78.7177 228.133 79.9328C230.859 81.1478 232.958 82.9053 234.429 85.2052C235.901 87.4617 236.637 90.2173 236.637 93.4719C236.637 96.6397 235.901 99.3735 234.429 101.673C232.958 103.93 230.859 105.687 228.133 106.946C225.406 108.161 222.139 108.768 218.33 108.768H203.854L205.347 107.206V123.674H202.037ZM233.586 123.674L221.771 107.141H225.536L237.351 123.674H233.586ZM205.347 107.402L203.854 105.839H218.33C223.221 105.839 226.921 104.754 229.431 102.585C231.984 100.415 233.261 97.3774 233.261 93.4719C233.261 89.523 231.984 86.4854 229.431 84.359C226.921 82.1893 223.221 81.1044 218.33 81.1044H203.854L205.347 79.4771V107.402Z" fill="#B9F2FF"/>
<path d="M241.163 123.674L262.066 78.1102H265.376L286.279 123.674H282.709L262.974 80.1931H264.403L244.733 123.674H241.163ZM248.823 110.851L249.926 108.052H277.126L278.23 110.851H248.823Z" fill="#B9F2FF"/>
<path d="M294.528 123.674V78.1102H297.839V120.68H324V123.674H294.528Z" fill="#B9F2FF"/>
</g>
<defs>
<filter id="filter0_i_9_33" x="-3.8147e-06" y="-3.05176e-05" width="324" height="128" filterUnits="userSpaceOnUse" color-interpolation-filters="sRGB">
<feFlood flood-opacity="0" result="BackgroundImageFix"/>
<feBlend mode="normal" in="SourceGraphic" in2="BackgroundImageFix" result="shape"/>
<feColorMatrix in="SourceAlpha" type="matrix" values="0 0 0 0 0 0 0 0 0 0 0 0 0 0 0 0 0 0 127 0" result="hardAlpha"/>
<feOffset dy="4"/>
<feGaussianBlur stdDeviation="2"/>
<feComposite in2="hardAlpha" operator="arithmetic" k2="-1" k3="1"/>
<feColorMatrix type="matrix" values="0 0 0 0 0 0 0 0 0 0 0 0 0 0 0 0 0 0 0.25 0"/>
<feBlend mode="normal" in2="shape" result="effect1_innerShadow_9_33"/>
</filter>
</defs>
</svg>
